<?xml version="1.0" encoding="UTF-8"?>
<svg version="1.1" id="logo" xmlns:svg="http://www.w3.org/2000/svg" xmlns="http://www.w3.org/2000/svg" xmlns:xlink="http://www.w3.org/1999/xlink" x="0px" y="0px" viewBox="138.678 262.426 372.4 189.923" enable-background="new 138.678 262.426 372.4 189.923" xml:space="preserve"><g id="g4739" transform="translate(112.6077,398.8102)"><path id="path4741" d="M66.732,28.252c-1.488-0.148-3.87-1.488-5.507-2.828 C45.302,9.798,65.69-8.209,89.501-18.627v-29.764c5.507,3.572,8.632,3.721,8.781,4.167l18.155-18.007l-6.102-15.477 c53.129-18.305,74.41-25.299,117.568-32.592l-7.739-7.292l12.649-7.143c29.021,9.524,56.403,12.054,51.641,36.46 c1.191-16.519-19.346-22.769-50.599-31.55l-6.102,3.721l11.608,9.524c-51.641,8.929-83.488,19.049-121.288,32.145l5.208,13.394 l-19.049,18.9c3.125,0.893,36.313,11.906,70.689-12.054c0,0,0.744-0.447,0.744-0.744c-1.041-1.637-3.423-3.572-6.25-6.102 c10.119,0.744,16.667,9.524,15.478,18.751h-4.763c0.298-2.976-0.298-6.25-1.339-8.333C152.154-31.128,121.2-28.3,94.859-37.527 v23.067C82.061-9.995,59.291,4.143,59.439,17.834C60.333,24.234,63.606,26.615,66.732,28.252"/></g><g id="g4743" transform="translate(147.6202,401.2868)"><path id="path4745" fill="#FF6600" d="M140.674,18.151 c-28.573,14.435-55.956,26.042-98.072,27.681C-12.312,44.64-20.796,8.18,5.099-29.919c24.556-38.396,63.547-73.219,125.456-94.947 c18.007-6.399,44.348-13.543,69.796-13.989c36.61-0.298,72.178,11.013,69.797,46.134c-1.34,26.937-40.182,64.737-60.57,91.971 c-8.78,11.906-10.269,19.644,4.763,18.9c54.319-3.572,103.43-22.323,149.118-41.819C332.503-2.684,172.82,76.34,172.224,22.467 c0.149-6.846,3.274-14.138,8.482-21.877c5.061-7.739,12.055-15.775,19.347-23.96c10.864-12.352,37.949-42.116,47.027-59.975 c15.329-33.335-18.9-34.973-48.515-45.39l-12.65,7.144l7.739,7.292c-43.158,7.144-64.439,14.287-117.568,32.592l6.102,15.477 L64.181-48.372c-0.446-0.446-3.125-0.595-8.78-4.167v29.764C31.738-12.358,11.201,5.65,27.124,21.275 c1.638,1.34,4.019,2.68,5.507,2.828C61.8,40.474,140.823,18.151,140.674,18.151"/></g><g id="g4747" transform="translate(202.4596,395.08025)"><path id="path4749" fill="#FF6600" d="M256.589,43.695h3.721c0.744,0,1.34-0.15,1.786-0.299 s0.744-0.445,1.042-0.744c0.297-0.445,0.297-0.744,0.297-1.189c0-0.596-0.297-1.191-0.744-1.488 c-0.446-0.447-1.19-0.596-2.083-0.596h-4.019V43.695z M254.953,51.134V37.89h5.953c1.19,0,2.083,0.148,2.679,0.297 c0.595,0.299,1.042,0.596,1.488,1.34c0.446,0.596,0.595,1.191,0.595,1.936c0,0.893-0.297,1.785-0.893,2.381 s-1.488,1.041-2.827,1.189c0.446,0.15,0.893,0.447,1.041,0.596c0.446,0.447,1.042,1.041,1.488,1.785l2.382,3.572h-2.232 l-1.786-2.678c-0.446-0.895-0.893-1.488-1.34-1.936c-0.297-0.445-0.595-0.744-0.893-0.893s-0.446-0.297-0.744-0.297 c-0.148,0-0.446,0-1.042,0h-2.232v5.951H254.953L254.953,51.134z"/></g><g id="g4751" transform="translate(203.6136,390.7014)"><path id="path4753" fill="#FF6600" d="M259.088,61.648c6.995,0,12.649-5.656,12.649-12.65 s-5.654-12.65-12.649-12.65c-6.994,0-12.649,5.656-12.649,12.65S252.094,61.648,259.088,61.648 M248.373,48.997 c0-5.953,4.762-10.715,10.715-10.715c5.953,0,10.715,4.762,10.715,10.715c0,5.805-4.762,10.715-10.715,10.715 C253.135,59.712,248.373,54.95,248.373,48.997"/></g></svg>